<?xml version="1.0" encoding="utf-8"?>
<!-- Generator: Adobe Illustrator 17.0.0, SVG Export Plug-In . SVG Version: 6.00 Build 0)  -->
<!DOCTYPE svg PUBLIC "-//W3C//DTD SVG 1.1//EN" "http://www.w3.org/Graphics/SVG/1.1/DTD/svg11.dtd">
<svg version="1.1" id="Layer_1" xmlns="http://www.w3.org/2000/svg" xmlns:xlink="http://www.w3.org/1999/xlink" x="0px" y="0px"
	 width="558px" height="552px" viewBox="0 0 558 552" enable-background="new 0 0 558 552" xml:space="preserve">
<g>
	<g>
		<path d="M424.575,386.63c-0.003-36.146-0.055-72.291,0.077-108.437c0.013-3.645-0.889-5.5-4.475-6.995
			c-36.194-15.086-58.245-51.608-54.409-89.673c3.954-39.23,32.146-70.492,70.836-78.549
			c50.005-10.413,99.191,25.411,104.884,76.392c4.432,39.691-17.079,76.558-53.805,91.766c-3.559,1.474-4.532,3.253-4.527,6.93
			c0.109,71.125,0.109,142.25,0.008,213.374c-0.006,4.265-0.449,8.718-1.721,12.759c-4.23,13.436-18.214,21.997-31.527,19.786
			c-14.917-2.477-25.277-14.142-25.312-28.917C424.521,458.921,424.578,422.776,424.575,386.63z M453.869,248.892
			c32.672-0.03,59.115-26.332,59.315-58.998c0.199-32.572-26.706-59.526-59.407-59.514c-32.671,0.012-59.466,26.931-59.334,59.606
			C394.576,222.475,421.257,248.922,453.869,248.892z"/>
		<path d="M119.169,101.171c51.672,0.355,92.853,44.562,87.926,95.657c-3.385,35.101-21.989,59.978-54.273,74.299
			c-3.517,1.56-4.534,3.305-4.529,6.972c0.102,71.991,0.089,143.981,0.062,215.972c-0.005,14.277-8.88,25.982-21.945,29.203
			c-18.323,4.517-35.696-8.446-36.663-27.376c-0.093-1.829-0.044-3.665-0.044-5.498c-0.002-70.658-0.04-141.315,0.096-211.972
			c0.008-4.15-1.317-5.916-5.118-7.542c-37.766-16.153-56.764-53.258-53.617-88.741c3.894-43.908,37.901-74.625,74.704-79.685
			C110.21,101.848,114.701,101.592,119.169,101.171z M119.004,248.88c32.533,0.094,59.194-26.287,59.471-58.846
			c0.276-32.462-26.705-59.61-59.281-59.648c-32.473-0.038-58.993,26.272-59.427,58.956
			C59.337,221.841,86.145,248.785,119.004,248.88z"/>
		<path d="M315.667,149.662c0,35.993,0.066,71.985-0.086,107.977c-0.018,4.35,0.985,6.63,5.388,8.477
			c36.353,15.249,57.524,52.003,53.263,91.763c-3.998,37.31-33.263,68.678-71.071,76.178
			c-55.798,11.068-108.228-34.269-104.765-91.054c2.223-36.447,20.889-62.01,53.924-77.051c3.894-1.773,5.018-3.695,5.012-7.709
			c-0.104-70.652-0.091-141.304-0.033-211.956c0.003-3.968,0.056-8.08,1.04-11.877c3.599-13.884,17.048-23.127,30.829-21.62
			c15.146,1.656,26.294,13.455,26.398,28.896c0.232,34.325,0.089,68.652,0.099,102.978
			C315.667,146.33,315.667,147.996,315.667,149.662z M286.23,288.032c-32.956,0.134-59.061,26.561-58.954,59.681
			c0.105,32.488,26.795,58.922,59.417,58.848c32.709-0.075,59.106-26.85,58.966-59.811
			C345.521,314.163,318.939,287.9,286.23,288.032z"/>
		<path d="M453.432,71.33c-16.22-0.18-29.104-13.617-28.847-30.086c0.245-15.71,13.574-28.66,29.401-28.567
			c16.164,0.095,29.562,13.794,29.217,29.872C482.858,58.585,469.491,71.508,453.432,71.33z"/>
		<path d="M148.353,41.892c0.047,16.099-12.99,29.329-29.005,29.434c-16.222,0.106-29.697-13.279-29.615-29.419
			c0.081-15.951,13.39-29.201,29.353-29.22C135.078,12.667,148.306,25.867,148.353,41.892z"/>
		<path d="M315.62,494.664c0.108,16.21-12.715,29.395-28.794,29.605c-16.248,0.212-29.538-13.008-29.529-29.375
			c0.009-16.226,12.916-29.239,29.049-29.286C302.512,465.56,315.511,478.463,315.62,494.664z"/>
	</g>
</g>
</svg>
