<?xml version="1.0" encoding="utf-8"?>
<!-- Generator: Adobe Illustrator 17.0.0, SVG Export Plug-In . SVG Version: 6.00 Build 0)  -->
<!DOCTYPE svg PUBLIC "-//W3C//DTD SVG 1.1//EN" "http://www.w3.org/Graphics/SVG/1.1/DTD/svg11.dtd">
<svg version="1.1" id="Layer_1" xmlns="http://www.w3.org/2000/svg" xmlns:xlink="http://www.w3.org/1999/xlink" x="0px" y="0px"
	 width="612px" height="792px" viewBox="0 0 612 792" enable-background="new 0 0 612 792" xml:space="preserve">
<g>
	<path d="M136.721,205.07c0,11.766-0.394,23.127,0.182,34.438c0.252,4.936,1.684,10.197,3.989,14.567
		c5.492,10.415,14.55,15.507,26.497,15.964c10.759,0.412,20.362-1.697,27.961-9.841c5.589-5.989,8.717-13.007,8.71-21.302
		c-0.009-9.872,0-19.744,0.002-29.616c0-1.228,0-2.456,0-3.954c79.618,0,158.903,0,238.789,0c0,1.196,0,2.378,0,3.561
		c0,9.872-0.037,19.745,0.007,29.617c0.078,17.462,13.965,31.123,31.436,31.548c10.265,0.25,19.662-1.338,27.254-8.883
		c6.323-6.284,9.687-13.825,9.681-22.801c-0.008-9.747-0.002-19.495-0.001-29.242c0-1.221,0-2.442,0-3.593
		c29.851-4.076,54.61,16.565,54.65,45.281c0.101,73.48,0.036,146.96,0.034,220.44c-0.001,36.49,0.002,72.98-0.018,109.47
		c-0.016,28.17-19.972,48.087-48.246,48.09c-132.838,0.015-265.676,0.013-398.515,0.001c-23.039-0.002-40.875-13.266-46.616-34.843
		c-0.983-3.694-1.41-7.644-1.412-11.476c-0.072-110.095-0.068-220.19-0.048-330.286c0.005-27.325,19.65-46.984,47.001-47.133
		C124.142,205.041,130.229,205.07,136.721,205.07z M104.739,590.855c75.098,0,149.61,0,224.033,0
		c0.156-0.571,0.279-0.811,0.279-1.05c-0.009-27.865,0.397-55.74-0.182-83.593c-0.452-21.78-19.202-43.115-40.689-46.386
		c-9.911-1.509-20.163-0.79-30.261-1.019c-0.682-0.016-1.445,0.381-2.054,0.768c-8.308,5.283-17.489,7.883-27.2,8.662
		c-13.427,1.077-27.148,1.513-39.312-4.738c-8.164-4.195-16.151-5.047-24.766-4.772c-2.622,0.084-5.248,0.019-7.872,0.027
		c-28.583,0.088-51.847,23.319-51.942,52.006c-0.084,25.367-0.028,50.734-0.034,76.101
		C104.738,588.095,104.739,589.329,104.739,590.855z M213.856,452.379c16.076,0.048,26.801-2.866,36.65-8.804
		c38.864-23.435,46.564-79.738,15.535-113.391c-26.669-28.924-68.768-28.847-95.306,0.176c-22.398,24.495-25.333,63.858-6.56,91.754
		C177.081,441.293,195.039,451.827,213.856,452.379z M446.368,497.752c-20.115,0-40.229-0.029-60.344,0.016
		c-6.981,0.015-12.015,5.035-12.206,11.977c-0.041,1.498-0.016,2.998-0.012,4.497c0.025,9.155,4.68,13.857,13.779,13.865
		c22.863,0.021,45.726,0.028,68.588,0.033c16.491,0.003,32.983,0.041,49.474-0.032c8.879-0.039,13.504-4.799,13.625-13.738
		c0.015-1.124,0.017-2.249,0.007-3.373c-0.08-8.329-4.99-13.236-13.315-13.243C486.097,497.738,466.233,497.749,446.368,497.752z
		 M446.545,468.072c0,0.009,0,0.019,0,0.028c19.365,0,38.73,0.03,58.095-0.012c10.205-0.022,14.566-4.432,14.638-14.607
		c0.009-1.249,0.037-2.5-0.012-3.748c-0.275-6.88-5.413-11.927-12.294-11.985c-6.871-0.058-13.743-0.016-20.614-0.015
		c-33.233,0-66.466-0.009-99.699,0.01c-7.902,0.005-12.768,4.915-12.847,12.847c-0.015,1.499-0.016,2.999-0.002,4.498
		c0.078,8.111,4.955,12.967,13.143,12.977C406.815,468.088,426.68,468.072,446.545,468.072z M446.418,556.782
		c-18.239,0-36.492,0.443-54.712-0.14c-14.612-0.468-18.879,5.22-17.918,18.832c0.458,6.482,5.353,11.569,11.874,11.576
		c40.475,0.043,80.951,0.046,121.426-0.004c6.787-0.008,11.733-4.927,12.135-11.731c0.096-1.619,0.062-3.247,0.054-4.871
		c-0.043-8.892-4.78-13.65-13.645-13.657C485.894,556.773,466.156,556.783,446.418,556.782z"/>
	<path d="M461.148,213.527c0-7.622-0.045-15.244,0.012-22.866c0.067-9.067,5.703-14.617,14.843-14.677
		c2.12-0.014,4.284-0.146,6.353,0.212c6.691,1.155,11.386,6.424,11.453,13.339c0.156,16.242,0.181,32.488-0.007,48.729
		c-0.088,7.565-5.904,13.056-13.474,13.397c-1.372,0.062-2.749,0.027-4.123,0.016c-9.339-0.072-14.996-5.638-15.059-14.91
		c-0.053-7.746-0.011-15.494-0.011-23.24C461.138,213.527,461.143,213.527,461.148,213.527z"/>
	<path d="M186.681,213.901c0,7.619,0.023,15.237-0.006,22.856c-0.035,9.291-5.618,14.885-14.983,14.889
		c-2.598,0.001-5.286-0.065-7.775-0.709c-5.748-1.487-9.662-6.413-9.703-12.324c-0.113-16.485-0.118-32.972,0-49.457
		c0.045-6.215,3.855-11.227,9.919-12.453c3.821-0.773,7.995-0.862,11.838-0.224c6.561,1.09,10.649,6.61,10.707,13.443
		c0.068,7.993,0.016,15.986,0.016,23.98C186.69,213.901,186.685,213.901,186.681,213.901z"/>
</g>
</svg>
