<?xml version="1.0" encoding="utf-8"?>
<!-- Generator: Adobe Illustrator 17.0.0, SVG Export Plug-In . SVG Version: 6.00 Build 0)  -->
<!DOCTYPE svg PUBLIC "-//W3C//DTD SVG 1.1//EN" "http://www.w3.org/Graphics/SVG/1.1/DTD/svg11.dtd">
<svg version="1.1" id="Layer_1" xmlns="http://www.w3.org/2000/svg" xmlns:xlink="http://www.w3.org/1999/xlink" x="0px" y="0px"
	 width="768px" height="768px" viewBox="0 0 768 768" enable-background="new 0 0 768 768" xml:space="preserve">
<path d="M365,26c47.833,0,93.458,9.292,136.875,27.875s80.833,43.583,112.25,75s56.417,68.833,75,112.25S717,330.167,717,378
	s-9.292,93.458-27.875,136.875s-43.583,80.833-75,112.25s-68.833,56.417-112.25,75S412.833,730,365,730
	s-93.458-9.292-136.875-27.875s-80.833-43.583-112.25-75s-56.417-68.833-75-112.25S13,425.833,13,378s9.292-93.458,27.875-136.875
	s43.583-80.833,75-112.25s68.833-56.417,112.25-75S317.167,26,365,26z M365,90c-39,0-76.292,7.625-111.875,22.875
	s-66.208,35.708-91.875,61.375s-46.125,56.292-61.375,91.875S77,339,77,378s7.625,76.292,22.875,111.875
	s35.708,66.208,61.375,91.875s56.292,46.125,91.875,61.375S326,666,365,666s76.292-7.625,111.875-22.875
	s66.208-35.708,91.875-61.375s46.125-56.292,61.375-91.875S653,417,653,378s-7.625-76.292-22.875-111.875
	s-35.708-66.208-61.375-91.875s-56.292-46.125-91.875-61.375S404,90,365,90z M365,218c8.833,0,16.375,3.125,22.625,9.375
	S397,241.167,397,250v96h96c8.833,0,16.375,3.125,22.625,9.375S525,369.167,525,378s-3.125,16.375-9.375,22.625S501.833,410,493,410
	h-96v96c0,8.833-3.125,16.375-9.375,22.625S373.833,538,365,538s-16.375-3.125-22.625-9.375S333,514.833,333,506v-96h-96
	c-8.833,0-16.375-3.125-22.625-9.375S205,386.833,205,378s3.125-16.375,9.375-22.625S228.167,346,237,346h96v-96
	c0-8.833,3.125-16.375,9.375-22.625S356.167,218,365,218z"/>
</svg>
