<?xml version="1.0" encoding="utf-8"?>
<!-- Generator: Adobe Illustrator 17.0.0, SVG Export Plug-In . SVG Version: 6.00 Build 0)  -->
<!DOCTYPE svg PUBLIC "-//W3C//DTD SVG 1.1//EN" "http://www.w3.org/Graphics/SVG/1.1/DTD/svg11.dtd">
<svg version="1.1" id="Layer_1" xmlns="http://www.w3.org/2000/svg" xmlns:xlink="http://www.w3.org/1999/xlink" x="0px" y="0px"
	 width="24px" height="24px" viewBox="0 0 24 24" enable-background="new 0 0 24 24" xml:space="preserve">
<path fill="#666666" d="M12,2.016c2.75,0,5.102,0.976,7.055,2.929S21.984,9.25,21.984,12s-0.976,5.102-2.929,7.055
	S14.75,21.984,12,21.984s-5.102-0.976-7.055-2.929S2.016,14.75,2.016,12s0.976-5.102,2.929-7.055S9.25,2.016,12,2.016z M12,5.016
	c-0.812,0-1.516,0.296-2.109,0.89C9.297,6.5,9,7.203,9,8.016c0,0.812,0.297,1.515,0.891,2.109c0.593,0.594,1.297,0.891,2.109,0.891
	c0.813,0,1.516-0.297,2.109-0.891C14.703,9.531,15,8.828,15,8.016c0-0.813-0.297-1.516-0.891-2.11
	C13.516,5.312,12.813,5.016,12,5.016z M12,19.219c2.531,0,4.531-1.078,6-3.235c-0.031-0.875-0.734-1.609-2.109-2.203
	s-2.672-0.89-3.891-0.89s-2.516,0.289-3.891,0.867S6.031,15.078,6,15.984C7.469,18.141,9.469,19.219,12,19.219z"/>
</svg>
